<?xml version="1.0" encoding="UTF-8" standalone="no"?>
<svg
   width="48"
   height="48"
   viewBox="0 0 48 48"
   version="1.1"
   id="svg1593"
   sodipodi:docname="github-mark.svg"
   inkscape:version="1.2.2 (b0a84865, 2022-12-01)"
   xmlns:inkscape="http://www.inkscape.org/namespaces/inkscape"
   xmlns:sodipodi="http://sodipodi.sourceforge.net/DTD/sodipodi-0.dtd"
   xmlns="http://www.w3.org/2000/svg"
   xmlns:svg="http://www.w3.org/2000/svg">
  <defs
     id="defs1597" />
  <sodipodi:namedview
     id="namedview1595"
     pagecolor="#ffffff"
     bordercolor="#666666"
     borderopacity="1.0"
     inkscape:showpageshadow="2"
     inkscape:pageopacity="0.0"
     inkscape:pagecheckerboard="0"
     inkscape:deskcolor="#d1d1d1"
     showgrid="false"
     inkscape:zoom="2.4583333"
     inkscape:cx="48.813559"
     inkscape:cy="48"
     inkscape:window-width="1309"
     inkscape:window-height="456"
     inkscape:window-x="0"
     inkscape:window-y="38"
     inkscape:window-maximized="0"
     inkscape:current-layer="svg1593" />
  <path
     fill-rule="evenodd"
     clip-rule="evenodd"
     d="M 24.019859,0 C 10.737497,0 0,10.999954 0,24.608397 c 0,10.877955 6.8798846,20.085916 16.424108,23.344902 1.193274,0.244999 1.630365,-0.529497 1.630365,-1.180995 0,-0.570497 -0.03933,-2.525989 -0.03933,-4.56348 C 11.3334,43.675817 9.9419845,39.275336 9.9419845,39.275336 8.8681856,36.423348 7.2771539,35.690351 7.2771539,35.690351 5.0902228,34.182857 7.4364537,34.182857 7.4364537,34.182857 c 2.4258809,0.162999 3.6988043,2.52599 3.6988043,2.52599 2.147106,3.747984 5.606961,2.688988 6.998868,2.036991 0.198633,-1.588993 0.835341,-2.688989 1.511382,-3.299986 -5.32917,-0.570498 -10.9361306,-2.688989 -10.9361306,-12.141449 0,-2.688989 0.9538324,-4.88898 2.4652146,-6.599973 -0.238458,-0.610997 -1.073799,-3.137487 0.238949,-6.518973 0,0 2.028123,-0.6519969 6.60111,2.52599 a 23.09356,23.484902 0 0 1 6.005211,-0.814997 c 2.028123,0 4.095579,0.285499 6.004719,0.814997 4.573478,-3.1779869 6.601601,-2.52599 6.601601,-2.52599 1.312749,3.381486 0.476916,5.907976 0.238458,6.518973 1.551207,1.710993 2.465706,3.910984 2.465706,6.599973 0,9.45246 -5.606961,11.529951 -10.975955,12.141449 0.875165,0.773997 1.630365,2.24049 1.630365,4.562981 0,3.299986 -0.03933,5.948475 -0.03933,6.762971 0,0.651998 0.437583,1.426494 1.630365,1.181995 C 41.120008,44.693813 47.999893,35.486352 47.999893,24.608397 48.039226,10.999954 37.262395,0 24.019859,0 Z"
     fill="#24292f"
     id="path1591"
     style="stroke-width:0.495814" />
</svg>
