<?xml version="1.0" encoding="UTF-8" standalone="no"?>
<!-- Created with Inkscape (http://www.inkscape.org/) -->

<svg
   width="64mm"
   height="64mm"
   viewBox="0 0 64 64"
   version="1.1"
   id="svg4387"
   xml:space="preserve"
   inkscape:version="1.2.2 (b0a84865, 2022-12-01)"
   sodipodi:docname="instagram_logo.svg"
   xmlns:inkscape="http://www.inkscape.org/namespaces/inkscape"
   xmlns:sodipodi="http://sodipodi.sourceforge.net/DTD/sodipodi-0.dtd"
   xmlns="http://www.w3.org/2000/svg"
   xmlns:svg="http://www.w3.org/2000/svg"><sodipodi:namedview
     id="namedview4389"
     pagecolor="#ffffff"
     bordercolor="#666666"
     borderopacity="1.0"
     inkscape:showpageshadow="2"
     inkscape:pageopacity="0.0"
     inkscape:pagecheckerboard="0"
     inkscape:deskcolor="#d1d1d1"
     inkscape:document-units="mm"
     showgrid="false"
     inkscape:zoom="0.2102413"
     inkscape:cx="556.5034"
     inkscape:cy="183.12291"
     inkscape:window-width="1512"
     inkscape:window-height="851"
     inkscape:window-x="0"
     inkscape:window-y="38"
     inkscape:window-maximized="1"
     inkscape:current-layer="layer1" /><defs
     id="defs4384" /><g
     inkscape:label="Layer 1"
     inkscape:groupmode="layer"
     id="layer1"
     transform="translate(191.57869,-100.4928)"><path
       style="fill:#000000;stroke-width:0.0458958"
       d="m -176.26383,164.46141 c -4.04181,-0.30482 -7.85783,-2.04478 -10.71202,-4.88429 -1.13592,-1.13007 -1.81838,-1.98956 -2.60002,-3.27448 -0.83406,-1.37108 -1.40112,-2.68468 -1.84427,-4.27225 l -0.15855,-0.56802 v -18.96336 -18.96336 l 0.15855,-0.56802 c 0.44315,-1.58756 1.01021,-2.90117 1.84427,-4.27225 0.78164,-1.28491 1.4641,-2.1444 2.60002,-3.27447 2.91239,-2.89741 6.72669,-4.60926 10.89626,-4.89022 0.51546,-0.0348 5.56153,-0.0448 16.78877,-0.0334 14.83257,0.015 16.09556,0.0222 16.62757,0.0944 0.93817,0.12741 1.41022,0.21476 2.16481,0.40063 4.37088,1.07662 8.12852,3.8228 10.47958,7.6588 1.21888,1.98871 2.02752,4.30255 2.35688,6.74395 0.079,0.58591 0.0833,1.4581 0.0833,17.10392 0,15.64581 -0.004,16.51802 -0.0833,17.10393 -0.27118,2.01014 -0.83036,3.83258 -1.70864,5.56866 -1.69627,3.35298 -4.4456,6.03822 -7.83587,7.65322 -1.75829,0.83759 -3.32699,1.29223 -5.45676,1.5815 -0.53324,0.0724 -1.776,0.0787 -16.83483,0.0858 -8.9425,0.004 -16.48709,-0.01 -16.76575,-0.0307 z m 32.42605,-3.74466 c 2.79045,-0.1717 5.30488,-1.12607 7.49843,-2.84609 0.55689,-0.43666 1.63638,-1.50137 2.07656,-2.04812 1.62041,-2.01266 2.65347,-4.57916 2.88088,-7.15712 0.0674,-0.76374 0.0674,-31.56908 0,-32.33282 -0.22741,-2.57795 -1.26047,-5.14445 -2.88088,-7.15711 -0.44018,-0.54675 -1.51967,-1.61146 -2.07656,-2.04813 -1.8564,-1.45565 -3.9844,-2.37741 -6.30087,-2.72927 -1.04778,-0.15915 -1.91196,-0.16649 -17.75603,-0.15067 l -15.63728,0.0156 -0.66787,0.0973 c -1.59184,0.23199 -2.82227,0.61118 -4.22509,1.30207 -2.05333,1.01127 -3.88685,2.63725 -5.14756,4.5649 -1.05024,1.60583 -1.69703,3.29122 -2.03961,5.31472 -0.0745,0.43982 -0.0796,1.54319 -0.0796,16.95696 0,18.21812 -0.0251,16.60683 0.27965,17.96308 0.85639,3.81143 3.48369,7.14804 6.98716,8.87351 1.70669,0.84054 3.51686,1.31601 5.3075,1.39407 0.85317,0.0372 31.16701,0.0248 31.78121,-0.0129 z m -17.18028,-13.20252 c -2.96805,-0.24767 -5.76338,-1.34078 -8.1756,-3.19704 -0.65726,-0.50578 -1.87588,-1.7053 -2.41224,-2.37444 -1.2986,-1.62004 -2.19532,-3.3482 -2.77596,-5.3498 -1.22738,-4.23107 -0.46566,-8.88135 2.06018,-12.5773 0.52566,-0.76917 1.08477,-1.42955 1.85868,-2.19533 1.22142,-1.20858 2.41438,-2.05525 3.96384,-2.8132 2.12001,-1.03707 3.95677,-1.48523 6.31018,-1.53969 1.5639,-0.0361 2.59076,0.0666 3.96114,0.39673 1.699,0.40922 3.38907,1.13174 4.74415,2.02816 3.82623,2.53118 6.21837,6.38971 6.77817,10.93323 0.0995,0.80745 0.0995,2.53948 0,3.34693 -0.40745,3.30701 -1.76807,6.2298 -4.01109,8.61633 -2.54118,2.70376 -5.9581,4.35876 -9.7221,4.70895 -0.46181,0.043 -2.13386,0.0536 -2.57935,0.0165 z m 2.87826,-3.83411 c 1.59526,-0.22535 3.25918,-0.85268 4.58342,-1.72801 2.20095,-1.45485 3.75123,-3.46199 4.56176,-5.90605 0.4192,-1.26407 0.5739,-2.22023 0.5739,-3.54705 0,-1.32682 -0.1547,-2.28298 -0.5739,-3.54704 -1.34986,-4.07037 -4.8805,-7.01227 -9.17003,-7.6409 -0.76424,-0.112 -2.50191,-0.11235 -3.24491,-7e-4 -0.62503,0.0939 -1.74468,0.37461 -2.31975,0.58145 -0.59396,0.21363 -1.77752,0.80995 -2.30926,1.16349 -2.75339,1.83067 -4.53002,4.61742 -5.02931,7.88875 -0.11155,0.73089 -0.11155,2.37892 0,3.10981 0.18252,1.19583 0.54281,2.34646 1.06683,3.40706 0.90919,1.84014 2.22095,3.32378 3.96248,4.48168 0.53174,0.35354 1.7153,0.94986 2.30926,1.1635 0.86912,0.3126 2.19141,0.59822 3.0567,0.66028 0.51838,0.0371 2.02117,-0.014 2.53281,-0.0863 z m 14.92662,-24.39954 c -1.74672,-0.23747 -3.09671,-1.62109 -3.26651,-3.34786 -0.15589,-1.58534 0.66198,-3.04571 2.10598,-3.76037 0.55365,-0.27401 0.94459,-0.35828 1.6644,-0.35877 0.54296,-3.4e-4 0.67324,0.0151 1.02748,0.12187 0.69838,0.21054 1.22075,0.52533 1.69782,1.02317 0.73334,0.76526 1.09143,1.72328 1.03803,2.77709 -0.0556,1.0979 -0.54718,2.05497 -1.41548,2.75601 -0.75312,0.60804 -1.88293,0.92057 -2.85172,0.78886 z"
       id="path7163" /></g></svg>
