<?xml version="1.0" encoding="UTF-8" standalone="no"?>
<!-- Created with Inkscape (http://www.inkscape.org/) -->

<svg
   width="32.798332mm"
   height="51.307373mm"
   viewBox="0 0 32.798332 51.307373"
   version="1.1"
   id="svg304"
   xmlns="http://www.w3.org/2000/svg"
   xmlns:svg="http://www.w3.org/2000/svg">
  <defs
     id="defs301" />
  <g
     id="layer1"
     transform="translate(60.484773,-122.36211)">
    <path
       d="m -49.41998,173.2634 c -0.89489,-0.48631 -1.31357,-1.44554 -2.23637,-5.12358 -0.60723,-2.42029 -0.86717,-3.05902 -1.33093,-3.27032 -0.90221,-0.41107 -1.16385,-1.34742 -1.16385,-4.16514 0,-2.43421 0.0475,-2.66956 0.69429,-3.43819 0.55877,-0.66406 0.665,-1.00553 0.54428,-1.74944 -0.26034,-1.60432 -1.36622,-3.60677 -3.32728,-6.02482 -2.24429,-2.76728 -3.37201,-4.88396 -3.88072,-7.28395 -1.56825,-7.39864 2.03666,-14.91089 8.72065,-18.17289 9.34614,-4.56123 20.62205,0.60651 23.18445,10.62539 1.3091,5.11855 0.18719,9.93919 -3.35003,14.39439 -0.86653,1.09141 -1.96203,2.54892 -2.43445,3.23891 -0.99238,1.44943 -1.91171,1.82986 -2.69935,1.11707 -0.28517,-0.25809 -0.5185,-0.72514 -0.5185,-1.03789 0,-0.72338 1.15299,-2.54142 3.2917,-5.19035 1.94356,-2.40722 2.6785,-3.79798 3.05436,-5.77987 1.07316,-5.65877 -1.44383,-11.26955 -6.38683,-14.23729 -1.56967,-0.94242 -4.98621,-1.92308 -6.69984,-1.92308 -8.56305,0 -15.08999,7.92593 -13.33458,16.19271 0.42295,1.99182 1.5206,3.98838 3.53457,6.42917 2.05626,2.49204 3.22423,4.71847 3.64967,6.95712 l 0.30759,1.61849 7.21079,0.0778 c 8.9852,0.097 8.41528,-0.19746 8.41528,4.3475 v 3.06436 l -0.83352,0.69861 c -0.72304,0.606 -0.94726,1.13697 -1.69165,4.00589 -0.93802,3.61514 -1.24736,4.2633 -2.25349,4.72172 -1.02662,0.46776 -9.57437,0.39236 -10.46624,-0.0923 z m 9.79357,-4.96012 c 0.34428,-1.34607 0.68261,-2.59622 0.75185,-2.77812 0.0981,-0.25775 -1.04032,-0.33073 -5.15886,-0.33073 h -5.28475 l 0.68255,2.77812 0.68256,2.77813 h 3.85034 3.85035 z m 2.6732,-7.47448 v -1.45521 h -7.14375 -7.14375 v 1.45521 1.45521 h 7.14375 7.14375 z m -8.56007,-11.79241 v -7.76111 h -0.78688 c -1.44375,0 -2.07497,-1.3825 -1.10737,-2.42535 0.35172,-0.37906 0.49244,-0.39687 3.13593,-0.39687 2.53291,0 2.80711,0.031 3.23245,0.36558 0.35848,0.28198 0.46476,0.52106 0.46476,1.04553 0,0.86902 -0.61899,1.41111 -1.61129,1.41111 h -0.68177 v 7.76111 7.7611 h -2.64583 z"
       style="stroke-width:0.264583"
       id="path352" />
  </g>
</svg>
